<svg width="12" height="14" viewBox="0 0 12 14" fill="none" xmlns="http://www.w3.org/2000/svg">
<path d="M1.33333 13.6667C0.966667 13.6667 0.652667 13.5363 0.391333 13.2754C0.130444 13.014 0 12.7 0 12.3334V3.00004C0 2.63337 0.130444 2.3196 0.391333 2.05871C0.652667 1.79737 0.966667 1.66671 1.33333 1.66671H2V0.983374C2 0.794485 2.06378 0.63893 2.19133 0.516707C2.31933 0.394485 2.47778 0.333374 2.66667 0.333374C2.85556 0.333374 3.014 0.397152 3.142 0.524707C3.26956 0.652707 3.33333 0.811152 3.33333 1.00004V1.66671H8.66667V0.983374C8.66667 0.794485 8.73067 0.63893 8.85867 0.516707C8.98622 0.394485 9.14444 0.333374 9.33333 0.333374C9.52222 0.333374 9.68044 0.397152 9.808 0.524707C9.936 0.652707 10 0.811152 10 1.00004V1.66671H10.6667C11.0333 1.66671 11.3473 1.79737 11.6087 2.05871C11.8696 2.3196 12 2.63337 12 3.00004V12.3334C12 12.7 11.8696 13.014 11.6087 13.2754C11.3473 13.5363 11.0333 13.6667 10.6667 13.6667H1.33333ZM1.33333 12.3334H10.6667V5.66671H1.33333V12.3334Z" fill="#E63B2E"/>
</svg>
