<svg width="16" height="12" viewBox="0 0 16 12" fill="none" xmlns="http://www.w3.org/2000/svg">
<path d="M15 10C15 10.2652 14.8946 10.5196 14.7071 10.7071C14.5196 10.8946 14.2652 11 14 11H2C1.73478 11 1.48043 10.8946 1.29289 10.7071C1.10536 10.5196 1 10.2652 1 10V4C1 3.73478 1.10536 3.48043 1.29289 3.29289C1.48043 3.10536 1.73478 3 2 3H3.172C3.96724 2.99956 4.72977 2.6834 5.292 2.121L6.122 1.293C6.309 1.10594 6.5625 1.00059 6.827 1H9.171C9.43619 1.00006 9.69051 1.10545 9.878 1.293L10.706 2.121C10.9846 2.39971 11.3154 2.6208 11.6795 2.77162C12.0436 2.92244 12.4339 3.00005 12.828 3H14C14.2652 3 14.5196 3.10536 14.7071 3.29289C14.8946 3.48043 15 3.73478 15 4V10ZM2 2C1.46957 2 0.960859 2.21071 0.585786 2.58579C0.210714 2.96086 0 3.46957 0 4L0 10C0 10.5304 0.210714 11.0391 0.585786 11.4142C0.960859 11.7893 1.46957 12 2 12H14C14.5304 12 15.0391 11.7893 15.4142 11.4142C15.7893 11.0391 16 10.5304 16 10V4C16 3.46957 15.7893 2.96086 15.4142 2.58579C15.0391 2.21071 14.5304 2 14 2H12.828C12.2976 1.99989 11.789 1.7891 11.414 1.414L10.586 0.586C10.211 0.210901 9.70239 0.000113275 9.172 0H6.828C6.29761 0.000113275 5.78899 0.210901 5.414 0.586L4.586 1.414C4.21101 1.7891 3.70239 1.99989 3.172 2H2Z" fill="#E63B2E"/>
<path d="M8 9C7.33696 9 6.70107 8.73661 6.23223 8.26777C5.76339 7.79893 5.5 7.16304 5.5 6.5C5.5 5.83696 5.76339 5.20107 6.23223 4.73223C6.70107 4.26339 7.33696 4 8 4C8.66304 4 9.29893 4.26339 9.76777 4.73223C10.2366 5.20107 10.5 5.83696 10.5 6.5C10.5 7.16304 10.2366 7.79893 9.76777 8.26777C9.29893 8.73661 8.66304 9 8 9ZM8 10C8.92826 10 9.8185 9.63125 10.4749 8.97487C11.1313 8.3185 11.5 7.42826 11.5 6.5C11.5 5.57174 11.1313 4.6815 10.4749 4.02513C9.8185 3.36875 8.92826 3 8 3C7.07174 3 6.1815 3.36875 5.52513 4.02513C4.86875 4.6815 4.5 5.57174 4.5 6.5C4.5 7.42826 4.86875 8.3185 5.52513 8.97487C6.1815 9.63125 7.07174 10 8 10ZM3 4.5C3 4.63261 2.94732 4.75979 2.85355 4.85355C2.75979 4.94732 2.63261 5 2.5 5C2.36739 5 2.24021 4.94732 2.14645 4.85355C2.05268 4.75979 2 4.63261 2 4.5C2 4.36739 2.05268 4.24021 2.14645 4.14645C2.24021 4.05268 2.36739 4 2.5 4C2.63261 4 2.75979 4.05268 2.85355 4.14645C2.94732 4.24021 3 4.36739 3 4.5Z" fill="#E63B2E"/>
</svg>
