<svg width="13" height="15" viewBox="0 0 13 15" fill="none" xmlns="http://www.w3.org/2000/svg">
<path d="M11.8396 0.854844C11.6262 0.626052 11.3318 0.5 11.0107 0.5H10.1282C9.47788 0.5 8.85718 1.02111 8.74477 1.66168L8.68911 1.97847C8.63317 2.29724 8.70846 2.59917 8.90118 2.82866C9.0939 3.05815 9.37823 3.1845 9.7019 3.1845H10.8418C11 3.1845 11.153 3.15291 11.2951 3.09685L11.174 4.13189C11.0573 4.08288 10.9293 4.05678 10.7948 4.05678H9.49414C8.93696 4.05678 8.38969 4.5002 8.27407 5.0452L7.12416 10.4665L1.6987 10.0766C1.40551 10.0556 1.16075 10.155 1.009 10.3501C0.866863 10.5328 0.825312 10.778 0.891922 11.0405L1.5227 13.5241C1.65936 14.0622 2.22225 14.5 2.77739 14.5H7.3258H7.3952H9.71046C10.273 14.5 10.779 14.0448 10.8383 13.4854L11.7283 5.09468C11.7334 5.04671 11.734 4.99945 11.7324 4.95266L12.037 2.35074C12.08 2.23867 12.1073 2.11956 12.1159 1.99601L12.136 1.70638C12.1584 1.38609 12.0531 1.0837 11.8396 0.854844Z" fill="#E63B2E"/>
</svg>
