<svg width="14" height="13" viewBox="0 0 14 13" fill="none" xmlns="http://www.w3.org/2000/svg">
<path d="M7 0.0742188C5.29578 0.0742188 3.66135 0.751219 2.45629 1.95629C1.25122 3.16135 0.574219 4.79578 0.574219 6.5C0.574219 8.20422 1.25122 9.83865 2.45629 11.0437C3.66135 12.2488 5.29578 12.9258 7 12.9258C7.84385 12.9258 8.67943 12.7596 9.45904 12.4366C10.2387 12.1137 10.947 11.6404 11.5437 11.0437C12.1404 10.447 12.6137 9.73865 12.9366 8.95904C13.2596 8.17943 13.4258 7.34385 13.4258 6.5C13.4258 5.65615 13.2596 4.82057 12.9366 4.04096C12.6137 3.26135 12.1404 2.55298 11.5437 1.95629C10.947 1.3596 10.2387 0.886278 9.45904 0.563352C8.67943 0.240426 7.84385 0.0742188 7 0.0742188ZM7 2.31641C9.30762 2.31641 11.1836 4.19238 11.1836 6.5C11.1836 8.80762 9.30762 10.6836 7 10.6836C4.69238 10.6836 2.81641 8.80762 2.81641 6.5C2.81641 4.19238 4.69238 2.31641 7 2.31641ZM7 2.80859C6.44172 2.80859 5.91289 2.93219 5.43895 3.15318C5.75468 4.05224 6.29502 5.1875 7 5.1875C7.7061 5.1875 8.22845 4.04863 8.55181 3.14889C8.08022 2.9306 7.55464 2.80859 7 2.80859ZM9.70025 3.98109C8.94245 4.55922 8.0284 5.42457 8.24638 6.0955C8.46461 6.76718 9.70949 6.91193 10.6652 6.94141C10.6824 6.79665 10.6914 6.64943 10.6914 6.5C10.6914 5.52541 10.3153 4.6403 9.70025 3.98109ZM4.2936 3.98774C3.68219 4.6462 3.30859 5.52867 3.30859 6.5C3.30859 6.65176 3.31789 6.80127 3.33561 6.94816C4.28807 6.92561 5.53353 6.76242 5.75127 6.0923C5.9693 5.42123 5.04908 4.57328 4.2936 3.98774ZM6.2128 5.1811C6.16324 5.1825 6.11525 5.19883 6.07512 5.22797C6.02234 5.26634 5.98695 5.3241 5.97674 5.38856C5.96654 5.45301 5.98236 5.51888 6.02071 5.57168C6.05907 5.62448 6.11682 5.65989 6.18128 5.67011C6.24574 5.68033 6.31161 5.66452 6.36442 5.62618C6.39057 5.60718 6.41272 5.58322 6.42962 5.55567C6.44651 5.52811 6.4578 5.4975 6.46286 5.46558C6.46792 5.43365 6.46664 5.40105 6.45909 5.36962C6.45155 5.33819 6.43789 5.30856 6.41889 5.28241C6.39536 5.25004 6.3643 5.2239 6.32839 5.20624C6.29248 5.18859 6.2528 5.17996 6.2128 5.1811ZM7.7872 5.1811C7.78139 5.18093 7.77558 5.18097 7.76978 5.18121C7.73274 5.18278 7.69654 5.19269 7.66387 5.21021C7.6312 5.22772 7.60291 5.2524 7.58111 5.28238C7.56211 5.30853 7.54844 5.33817 7.5409 5.3696C7.53335 5.40103 7.53207 5.43364 7.53713 5.46556C7.54218 5.49749 7.55348 5.5281 7.57038 5.55566C7.58727 5.58322 7.60942 5.60718 7.63558 5.62618C7.68838 5.66453 7.75426 5.68033 7.81871 5.67012C7.88317 5.6599 7.94093 5.6245 7.97929 5.57171C8.01764 5.51891 8.03346 5.45304 8.02326 5.38858C8.01305 5.32413 7.97766 5.26636 7.92488 5.228C7.88476 5.19885 7.83677 5.18251 7.7872 5.1811ZM7 5.625C6.76794 5.625 6.54538 5.71719 6.38128 5.88128C6.21719 6.04538 6.125 6.26794 6.125 6.5C6.125 6.73206 6.21719 6.95462 6.38128 7.11872C6.54538 7.28281 6.76794 7.375 7 7.375C7.23206 7.375 7.45462 7.28281 7.61872 7.11872C7.78281 6.95462 7.875 6.73206 7.875 6.5C7.875 6.26794 7.78281 6.04538 7.61872 5.88128C7.45462 5.71719 7.23206 5.625 7 5.625ZM5.73407 6.66507C5.70943 6.66543 5.68498 6.66949 5.66155 6.6771C5.63081 6.68709 5.60234 6.70303 5.57776 6.72401C5.55318 6.745 5.53297 6.77063 5.5183 6.79942C5.50362 6.82822 5.49476 6.85962 5.49222 6.89184C5.48968 6.92407 5.49352 6.95647 5.5035 6.98721C5.52367 7.04928 5.56767 7.10079 5.62582 7.13042C5.68397 7.16005 5.75151 7.16537 5.81358 7.1452C5.84432 7.13522 5.87279 7.11928 5.89737 7.0983C5.92195 7.07731 5.94215 7.05169 5.95683 7.0229C5.9715 6.9941 5.98036 6.9627 5.9829 6.93048C5.98544 6.89826 5.98161 6.86586 5.97163 6.83513C5.95539 6.78512 5.92356 6.74163 5.88081 6.71103C5.83806 6.68043 5.78663 6.66433 5.73407 6.66507ZM8.2731 6.66529C8.21935 6.66296 8.16632 6.6783 8.12213 6.70897C8.07793 6.73963 8.045 6.78394 8.02837 6.8351C8.01839 6.86584 8.01456 6.89824 8.0171 6.93046C8.01964 6.96267 8.0285 6.99408 8.04317 7.02287C8.05785 7.05166 8.07805 7.07728 8.10263 7.09827C8.12721 7.11926 8.15568 7.13519 8.18642 7.14518C8.24848 7.16534 8.31602 7.16003 8.37417 7.1304C8.43232 7.10078 8.47632 7.04927 8.4965 6.98721C8.50648 6.95647 8.51032 6.92407 8.50778 6.89184C8.50524 6.85962 8.49638 6.82822 8.48171 6.79942C8.46703 6.77063 8.44682 6.745 8.42224 6.72401C8.39766 6.70303 8.36919 6.68709 8.33845 6.6771C8.3173 6.67023 8.29531 6.66626 8.2731 6.66529ZM5.75356 7.42307C5.16321 7.42591 4.37981 7.88332 3.77322 8.2961C4.29354 9.23038 5.20767 9.91387 6.29275 10.1237C6.56592 9.21067 6.79643 7.97396 6.22587 7.55946C6.09314 7.46302 5.93228 7.42219 5.75356 7.42307ZM8.24228 7.42362C8.06236 7.42362 7.9007 7.46507 7.76798 7.56148C7.19663 7.97659 7.4436 9.20501 7.71088 10.123C8.79607 9.91203 9.70993 9.22721 10.2292 8.2917C9.62752 7.87542 8.83649 7.42362 8.24228 7.42359V7.42362ZM7 7.58227C6.93473 7.58227 6.87214 7.60819 6.82599 7.65434C6.77983 7.7005 6.75391 7.76309 6.75391 7.82836C6.75391 7.89363 6.77983 7.95622 6.82599 8.00237C6.87214 8.04853 6.93473 8.07445 7 8.07445C7.06527 8.07445 7.12786 8.04853 7.17401 8.00237C7.22017 7.95622 7.24609 7.89363 7.24609 7.82836C7.24609 7.76309 7.22017 7.7005 7.17401 7.65434C7.12786 7.60819 7.06527 7.58227 7 7.58227Z" fill="#E63B2E"/>
</svg>
