<svg width="14" height="9" viewBox="0 0 14 9" fill="none" xmlns="http://www.w3.org/2000/svg">
<path d="M13.7565 2.72423C13.3688 2.52127 12.311 2.8629 12.0354 3.0402C11.9452 2.87967 11.8428 2.70386 11.7319 2.52384C11.1644 1.60344 10.6832 1.07007 10.2606 0.893314C10.2436 0.886211 10.2261 0.880529 10.2082 0.876298C10.172 0.867744 9.29373 0.666992 7.00005 0.666992C4.70636 0.666992 3.82813 0.867774 3.79186 0.876298C3.77393 0.880529 3.75643 0.886211 3.73948 0.893314C3.31694 1.0701 2.83567 1.60344 2.26821 2.52384C2.15722 2.70386 2.05482 2.87967 1.96463 3.0402C1.68907 2.8629 0.631272 2.52127 0.243611 2.72423C-0.156411 2.93366 0.00386985 3.59282 0.243611 3.7716C0.393283 3.88319 0.803945 3.91716 1.2364 3.88842C1.13856 4.01872 1.06146 4.16537 1.00926 4.32332C1.69125 4.45117 3.29439 4.44564 3.0548 4.96541C2.70426 5.72571 1.6253 5.62047 0.960206 5.28244L1.0844 7.42609C1.0844 7.92703 1.4905 8.3331 1.99144 8.3331H2.5369C3.03784 8.3331 3.44391 7.92703 3.44391 7.42609L3.42611 7.23392H10.574L10.5562 7.42609C10.5562 7.92703 10.9622 8.3331 11.4632 8.3331H12.0087C12.5096 8.3331 12.9157 7.92703 12.9157 7.42609L13.0399 5.28244C12.3748 5.62047 11.2958 5.72574 10.9453 4.96541C10.7057 4.44564 12.3088 4.45117 12.9908 4.32332C12.9386 4.16534 12.8616 4.01869 12.7637 3.88842C13.1961 3.91719 13.6068 3.88322 13.7565 3.7716C13.9962 3.59282 14.1565 2.93366 13.7565 2.72423ZM8.74537 6.2265H5.25464L4.89194 4.90403H9.10803L8.74537 6.2265ZM2.59545 3.27997C3.02965 2.5203 3.58452 1.70905 3.97227 1.52208C4.13485 1.49013 5.02185 1.33616 7.00002 1.33616C8.98045 1.33616 9.86724 1.49049 10.0277 1.52205C10.4149 1.70874 10.9699 2.52012 11.4044 3.27997H2.59545Z" fill="#E63B2E"/>
</svg>
