<svg width="14" height="15" viewBox="0 0 14 15" fill="none" xmlns="http://www.w3.org/2000/svg">
<path d="M6.99325 0.833374C3.31325 0.833374 0.333252 3.82004 0.333252 7.50004C0.333252 11.18 3.31325 14.1667 6.99325 14.1667C10.6799 14.1667 13.6666 11.18 13.6666 7.50004C13.6666 3.82004 10.6799 0.833374 6.99325 0.833374ZM6.99992 12.8334C4.05325 12.8334 1.66659 10.4467 1.66659 7.50004C1.66659 4.55337 4.05325 2.16671 6.99992 2.16671C9.94658 2.16671 12.3333 4.55337 12.3333 7.50004C12.3333 10.4467 9.94658 12.8334 6.99992 12.8334ZM6.85325 4.16671H6.81325C6.54659 4.16671 6.33325 4.38004 6.33325 4.64671V7.79337C6.33325 8.02671 6.45325 8.24671 6.65992 8.36671L9.42659 10.0267C9.65325 10.16 9.94659 10.0934 10.0799 9.86671C10.1134 9.81273 10.1357 9.75256 10.1454 9.68979C10.1551 9.62702 10.1521 9.56294 10.1366 9.50135C10.121 9.43977 10.0932 9.38194 10.0549 9.33132C10.0165 9.2807 9.96834 9.23832 9.91325 9.20671L7.33325 7.67337V4.64671C7.33325 4.38004 7.11992 4.16671 6.85325 4.16671Z" fill="#495057"/>
</svg>
