<svg width="14" height="13" viewBox="0 0 14 13" fill="none" xmlns="http://www.w3.org/2000/svg">
<path d="M11.4615 0.0012207C10.0619 0.0012207 8.92358 1.13974 8.92358 2.53942C8.92358 3.83858 10.9958 6.69492 11.2321 7.0164L11.3192 7.13454C11.3522 7.17973 11.4059 7.20686 11.4615 7.20686C11.5179 7.20686 11.5708 7.17973 11.6039 7.13476L11.6909 7.0164C11.9272 6.69492 14 3.83858 14 2.53942C14 1.13977 12.8612 0.0012207 11.4615 0.0012207ZM11.4615 3.79759C10.8871 3.79759 10.4196 3.3304 10.4196 2.75579C10.4196 2.18117 10.8869 1.71374 11.4615 1.71374C12.0362 1.71374 12.5036 2.18135 12.5036 2.75579C12.5036 3.33022 12.036 3.79759 11.4615 3.79759Z" fill="#6C757D"/>
<path d="M11.4615 2.17542C11.1417 2.17542 10.8813 2.43579 10.8813 2.75598C10.8813 3.07595 11.1418 3.33643 11.4615 3.33643C11.7817 3.33643 12.042 3.07595 12.042 2.75598C12.042 2.43558 11.7816 2.17542 11.4615 2.17542Z" fill="#6C757D"/>
<path d="M5.13104 11.3416L4.97258 11.4597C5.99438 9.93518 7.5101 7.44486 7.5101 6.09341C7.5101 4.02283 5.82556 2.33826 3.75519 2.33826C1.68478 2.33829 0 4.02261 0 6.09341C0 8.01578 3.06594 12.2413 3.4154 12.7168L3.54366 12.8918C3.59325 12.9587 3.67191 12.9987 3.75498 12.9987C3.83801 12.9987 3.91666 12.9587 3.96543 12.8922L4.09455 12.7168C4.14103 12.6535 4.23667 12.5223 4.36553 12.3402C4.4305 12.4211 4.52575 12.4646 4.62247 12.4646C4.69145 12.4646 4.76104 12.4431 4.82032 12.3987L5.52612 11.8709C5.67244 11.7618 5.70214 11.5544 5.59335 11.4085C5.4838 11.2622 5.27693 11.2321 5.13104 11.3416ZM3.75494 7.95486C2.90508 7.95486 2.21335 7.2635 2.21335 6.41328C2.21335 5.56355 2.90504 4.87183 3.75494 4.87183C4.6048 4.87183 5.29606 5.56352 5.29606 6.41328C5.29628 7.2635 4.60502 7.95486 3.75494 7.95486Z" fill="#6C757D"/>
<path d="M3.75498 5.55481C3.28168 5.55481 2.89648 5.94 2.89648 6.41317C2.89648 6.8868 3.28168 7.27199 3.75498 7.27199C4.22826 7.27199 4.61345 6.8868 4.61345 6.41317C4.61366 5.94 4.22851 5.55481 3.75498 5.55481Z" fill="#6C757D"/>
<path d="M7.16128 9.82409L5.80768 10.8359C5.66137 10.9449 5.63123 11.1524 5.74056 11.2987C5.80553 11.3854 5.90483 11.4313 6.00556 11.4313C6.07454 11.4313 6.14381 11.4097 6.20301 11.3654L7.55704 10.3536C7.70336 10.2443 7.73328 10.0371 7.62394 9.89078C7.51461 9.74468 7.30759 9.71433 7.16128 9.82409Z" fill="#6C757D"/>
<path d="M9.1921 8.30641L7.83815 9.31842C7.69226 9.42751 7.66216 9.63496 7.77146 9.78127C7.83643 9.86778 7.93587 9.91382 8.03657 9.91382C8.10541 9.91382 8.17467 9.89229 8.23387 9.84796L9.58801 8.83619C9.73389 8.72689 9.76403 8.51966 9.6547 8.37335C9.54522 8.22725 9.33799 8.19668 9.1921 8.30641Z" fill="#6C757D"/>
<path d="M10.5751 7.2729L9.86932 7.80075C9.723 7.90961 9.69329 8.11706 9.80195 8.26316C9.86717 8.35031 9.96636 8.3959 10.0671 8.3959C10.1361 8.3959 10.2052 8.37461 10.2646 8.33007L10.9708 7.80243C11.1171 7.69331 11.1468 7.48612 11.0375 7.3398C10.9282 7.19349 10.7214 7.16321 10.5751 7.2729Z" fill="#6C757D"/>
</svg>
