<svg width="20" height="20" viewBox="0 0 20 20" fill="none" xmlns="http://www.w3.org/2000/svg">
<path d="M9.99971 5.92968C11.4418 5.92968 12.4146 6.55262 12.9693 7.07315L15.1368 4.95688C13.8056 3.71955 12.0733 2.96008 9.99971 2.96008C6.99598 2.96008 4.40185 4.68382 3.13892 7.19262L5.62212 9.12115C6.24505 7.26942 7.96878 5.92968 9.99971 5.92968Z" fill="#EA4335"/>
<path d="M17.3726 10.8107C17.3726 10.1793 17.3214 9.71847 17.2104 9.2406H9.99976V12.0907H14.2323C14.147 12.799 13.6862 13.8657 12.6622 14.5825L15.0856 16.4598C16.5363 15.1201 17.3726 13.1489 17.3726 10.8107Z" fill="#4285F4"/>
<path d="M5.63076 12.159C5.46862 11.6812 5.37476 11.1692 5.37476 10.6401C5.37476 10.111 5.46862 9.59903 5.62222 9.12116L3.13902 7.19263C2.61849 8.23369 2.31982 9.40276 2.31982 10.6401C2.31982 11.8774 2.61849 13.0465 3.13902 14.0876L5.63076 12.159Z" fill="#FBBC05"/>
<path d="M9.99973 18.3201C12.0733 18.3201 13.8141 17.6375 15.0856 16.4599L12.6621 14.5825C12.0136 15.0348 11.1432 15.3505 9.99973 15.3505C7.96879 15.3505 6.24506 14.0108 5.63066 12.1591L3.14746 14.0876C4.41039 16.5964 6.99599 18.3201 9.99973 18.3201Z" fill="#34A853"/>
</svg>
