<svg width="133" height="113" viewBox="0 0 133 113" fill="none" xmlns="http://www.w3.org/2000/svg">
<path d="M110.49 49.1281H77.0652C74.7698 49.1281 72.9089 50.9889 72.9089 53.2843C72.9089 55.5797 74.7697 57.4406 77.0652 57.4406H110.49C112.785 57.4406 114.646 55.5797 114.646 53.2843C114.646 50.9889 112.785 49.1281 110.49 49.1281Z" fill="#E5E5E5"/>
<path d="M38.8577 68.8204C46.0692 68.8204 51.9153 62.9743 51.9153 55.7628C51.9153 48.5513 46.0692 42.7052 38.8577 42.7052C31.6461 42.7052 25.8 48.5513 25.8 55.7628C25.8 62.9743 31.6461 68.8204 38.8577 68.8204Z" fill="#E5E5E5"/>
<path d="M38.8578 71.6539C27.569 71.6539 18.4083 81.6932 18.1825 94.1664H59.533C59.3072 81.6932 50.1465 71.6539 38.8578 71.6539Z" fill="#E5E5E5"/>
<path d="M110.66 64.3649H77.2397C74.9443 64.3649 73.0835 66.2257 73.0835 68.5212C73.0835 70.8166 74.9443 72.6774 77.2398 72.6774H110.66C112.956 72.6774 114.816 70.8166 114.816 68.5212C114.816 66.2257 112.956 64.3649 110.66 64.3649Z" fill="#E5E5E5"/>
<path d="M110.66 79.4314H77.2397C74.9443 79.4314 73.0835 81.2922 73.0835 83.5876C73.0835 85.8831 74.9443 87.7439 77.2398 87.7439H110.66C112.956 87.7439 114.816 85.8831 114.816 83.5876C114.816 81.2922 112.956 79.4314 110.66 79.4314Z" fill="#E5E5E5"/>
<path d="M133 27.7611C133 26.1042 131.657 24.7611 130 24.7611H80.5274V13.8933C80.5274 6.77812 74.1551 0.990173 66.3255 0.990173C58.4961 0.990173 52.1276 6.77812 52.1276 13.8933V24.7611H3C1.34315 24.7611 0 26.1042 0 27.7611V109.01C0 110.666 1.34315 112.01 3 112.01H130C131.657 112.01 133 110.666 133 109.01V27.7611ZM60.4401 13.8933C60.4401 11.4052 63.1351 9.30267 66.3255 9.30267C69.5196 9.30267 72.2149 11.4052 72.2149 13.8933V24.7611H60.4404L60.4401 13.8933ZM124.688 103.697H8.3125V33.0736H124.688V103.697Z" fill="#E5E5E5"/>
</svg>
