<svg width="22" height="40" viewBox="0 0 22 40" fill="none" xmlns="http://www.w3.org/2000/svg">
<path d="M11.0217 38.7281C13.3249 38.7281 15.192 36.861 15.192 34.5578C15.192 32.2548 13.3249 30.3877 11.0217 30.3877C8.71862 30.3877 6.85156 32.2548 6.85156 34.5578C6.85156 36.861 8.71862 38.7281 11.0217 38.7281Z" fill="black"/>
<path fill-rule="evenodd" clip-rule="evenodd" d="M11.0214 31.4134C9.28471 31.4134 7.87684 32.8213 7.87684 34.558C7.87684 36.2946 9.28471 37.7025 11.0214 37.7025C12.758 37.7025 14.1659 36.2946 14.1659 34.558C14.1659 32.8213 12.758 31.4134 11.0214 31.4134ZM5.82556 34.5579C5.82556 31.6883 8.15182 29.3621 11.0214 29.3621C13.891 29.3621 16.2172 31.6883 16.2172 34.5579C16.2172 37.4275 13.891 39.7538 11.0214 39.7538C8.15182 39.7538 5.82556 37.4275 5.82556 34.5579Z" fill="#E5E5E5"/>
<path fill-rule="evenodd" clip-rule="evenodd" d="M10.0104 21.9514H11.8703V33.8215H10.0104V21.9514Z" fill="black"/>
<path d="M11.0222 22.4644C17.0103 22.4644 21.8647 17.6101 21.8647 11.6219C21.8647 5.63377 17.0103 0.779419 11.0222 0.779419C5.03404 0.779419 0.179688 5.63377 0.179688 11.6219C0.179688 17.6101 5.03404 22.4644 11.0222 22.4644Z" fill="#E63B2E"/>
<path d="M11.0223 14.9581C12.8648 14.9581 14.3585 13.4644 14.3585 11.6219C14.3585 9.77941 12.8648 8.28577 11.0223 8.28577C9.1798 8.28577 7.68616 9.77941 7.68616 11.6219C7.68616 13.4644 9.1798 14.9581 11.0223 14.9581Z" fill="#F9FFFF"/>
</svg>
