<svg width="8" height="11" viewBox="0 0 8 11" fill="none" xmlns="http://www.w3.org/2000/svg">
<path d="M4 0.5C2.065 0.5 0.5 2.065 0.5 4C0.5 6.625 4 10.5 4 10.5C4 10.5 7.5 6.625 7.5 4C7.5 2.065 5.935 0.5 4 0.5ZM4 5.25C3.66848 5.25 3.35054 5.1183 3.11612 4.88388C2.8817 4.64946 2.75 4.33152 2.75 4C2.75 3.66848 2.8817 3.35054 3.11612 3.11612C3.35054 2.8817 3.66848 2.75 4 2.75C4.33152 2.75 4.64946 2.8817 4.88388 3.11612C5.1183 3.35054 5.25 3.66848 5.25 4C5.25 4.33152 5.1183 4.64946 4.88388 4.88388C4.64946 5.1183 4.33152 5.25 4 5.25Z" fill="#6C757D"/>
</svg>
