<svg width="12" height="16" viewBox="0 0 12 16" fill="none" xmlns="http://www.w3.org/2000/svg">
<path d="M8.64583 8.9414H5.24609C5.00265 8.93234 4.77219 8.82926 4.60316 8.65383C4.43413 8.47839 4.33969 8.24426 4.33969 8.00064C4.33969 7.75703 4.43413 7.5229 4.60316 7.34746C4.77219 7.17203 5.00265 7.06895 5.24609 7.05989H8.64583L7.54167 5.82682C7.37688 5.64173 7.29148 5.39926 7.3039 5.15176C7.31633 4.90425 7.42558 4.67156 7.60807 4.5039C7.69799 4.4216 7.80336 4.35799 7.91806 4.31674C8.03276 4.27549 8.15451 4.25742 8.27625 4.2636C8.39799 4.26978 8.51728 4.30007 8.62722 4.35272C8.73716 4.40537 8.83554 4.47933 8.91667 4.57031L11.4271 7.37239C11.5822 7.54712 11.6672 7.77305 11.6658 8.0067C11.6643 8.24035 11.5765 8.46521 11.4193 8.63801L8.91667 11.4297C8.83574 11.521 8.73742 11.5952 8.62747 11.6481C8.51752 11.7009 8.39814 11.7313 8.27631 11.7375C8.15447 11.7437 8.03262 11.7255 7.91789 11.6841C7.80315 11.6426 7.69783 11.5787 7.60807 11.4961C7.42558 11.3284 7.31633 11.0957 7.3039 10.8482C7.29148 10.6007 7.37688 10.3583 7.54167 10.1732L8.64583 8.9414ZM5.22266 0.0182224C5.46733 -0.0306424 5.72139 0.0196887 5.92895 0.158143C6.1365 0.296598 6.28056 0.511835 6.32943 0.756504C6.37829 1.00117 6.32796 1.25523 6.18951 1.46279C6.05105 1.67035 5.83582 1.81441 5.59115 1.86327L5.14974 1.95312C3.02344 2.37499 1.88151 2.61588 1.88151 5.55859V10.7096C1.88151 13.444 3.09766 13.6732 5.11068 14.0495L5.58333 14.138C5.70448 14.1612 5.81988 14.208 5.92294 14.2758C6.026 14.3435 6.1147 14.4309 6.18398 14.533C6.25326 14.635 6.30177 14.7497 6.32672 14.8705C6.35168 14.9913 6.3526 15.1158 6.32943 15.237C6.30626 15.3581 6.25945 15.4735 6.19169 15.5766C6.12392 15.6796 6.03652 15.7683 5.93447 15.8376C5.83242 15.9069 5.71773 15.9554 5.59693 15.9804C5.47614 16.0053 5.35162 16.0062 5.23047 15.9831L4.76562 15.8945C1.79427 15.3398 0 15.0039 0 10.7096V5.55598C0 1.07291 1.67188 0.723952 4.78385 0.106764L5.22266 0.0182224Z" fill="black"/>
</svg>
