<svg width="22" height="22" viewBox="0 0 22 22" fill="none" xmlns="http://www.w3.org/2000/svg">
<path d="M12.1667 14.5V19.1667H15.6667V21.5H6.33333V19.1667H9.83333V14.5H1.66667C1.35725 14.5 1.0605 14.3771 0.841709 14.1583C0.622916 13.9395 0.5 13.6428 0.5 13.3333V1.66667C0.5 1.35725 0.622916 1.0605 0.841709 0.841709C1.0605 0.622916 1.35725 0.5 1.66667 0.5H20.3333C20.6428 0.5 20.9395 0.622916 21.1583 0.841709C21.3771 1.0605 21.5 1.35725 21.5 1.66667V13.3333C21.5 13.6428 21.3771 13.9395 21.1583 14.1583C20.9395 14.3771 20.6428 14.5 20.3333 14.5H12.1667ZM2.83333 12.1667H19.1667V2.83333H2.83333V12.1667ZM6.33333 6.33333H15.6667V8.66667H6.33333V6.33333Z" fill="#495057"/>
</svg>
