<svg width="28" height="28" viewBox="0 0 28 28" fill="none" xmlns="http://www.w3.org/2000/svg">
<g clip-path="url(#clip0_289_266)">
<path d="M27.9861 20.4696L25.8322 7.18577C25.7476 6.66432 25.2975 6.28113 24.7692 6.28113H3.23082C2.70265 6.28113 2.25235 6.66432 2.16775 7.18577L0.0138872 20.4696C-0.036644 20.7813 0.0521684 21.0993 0.256754 21.3398C0.461394 21.5804 0.76119 21.7188 1.07696 21.7188H26.923C27.2388 21.7188 27.5386 21.5803 27.7432 21.3398C27.9479 21.0994 28.0367 20.7813 27.9861 20.4696ZM2.34253 19.5651L3.23618 14.0535L4.12982 19.5651H2.34253ZM6.3118 19.565V19.5651L4.50717 8.43505H23.8528L25.6575 19.565H6.3118Z" fill="#495057"/>
<path d="M20.0714 13H8.92856C8.41576 13 8 13.4477 8 14C8 14.5523 8.41576 15 8.92856 15H20.0714C20.5842 15 21 14.5523 21 14C21 13.4477 20.5842 13 20.0714 13Z" fill="#495057"/>
</g>
<defs>
<clipPath id="clip0_289_266">
<rect width="28" height="28" fill="white"/>
</clipPath>
</defs>
</svg>
