<svg width="21" height="22" viewBox="0 0 21 22" fill="none" xmlns="http://www.w3.org/2000/svg">
<path fill-rule="evenodd" clip-rule="evenodd" d="M16.17 7.7615C15.9591 7.97218 15.6731 8.09051 15.375 8.09051C15.0769 8.09051 14.7909 7.97218 14.58 7.7615L11.625 4.8065V15.875C11.625 16.1734 11.5065 16.4595 11.2955 16.6705C11.0845 16.8815 10.7984 17 10.5 17C10.2016 17 9.91548 16.8815 9.7045 16.6705C9.49353 16.4595 9.375 16.1734 9.375 15.875V4.8065L6.42 7.7615C6.20674 7.96022 5.92467 8.0684 5.63322 8.06326C5.34176 8.05812 5.06369 7.94005 4.85757 7.73393C4.65145 7.52781 4.53338 7.24974 4.52824 6.95828C4.5231 6.66683 4.63128 6.38476 4.83 6.1715L9.705 1.2965L10.5 0.5L11.295 1.295L16.17 6.17C16.2745 6.27448 16.3575 6.39853 16.4141 6.53506C16.4706 6.6716 16.4998 6.81795 16.4998 6.96575C16.4998 7.11355 16.4706 7.2599 16.4141 7.39644C16.3575 7.53297 16.2745 7.65702 16.17 7.7615ZM2.25 13.625C2.25 13.3266 2.13147 13.0405 1.9205 12.8295C1.70952 12.6185 1.42337 12.5 1.125 12.5C0.826631 12.5 0.540483 12.6185 0.329505 12.8295C0.118526 13.0405 4.44604e-09 13.3266 0 13.625V18.5C0 19.2956 0.316071 20.0587 0.87868 20.6213C1.44129 21.1839 2.20435 21.5 3 21.5H18C18.7956 21.5 19.5587 21.1839 20.1213 20.6213C20.6839 20.0587 21 19.2956 21 18.5V13.625C21 13.3266 20.8815 13.0405 20.6705 12.8295C20.4595 12.6185 20.1734 12.5 19.875 12.5C19.5766 12.5 19.2905 12.6185 19.0795 12.8295C18.8685 13.0405 18.75 13.3266 18.75 13.625V18.5C18.75 18.6989 18.671 18.8897 18.5303 19.0303C18.3897 19.171 18.1989 19.25 18 19.25H3C2.80109 19.25 2.61032 19.171 2.46967 19.0303C2.32902 18.8897 2.25 18.6989 2.25 18.5V13.625Z" fill="#0B449D"/>
</svg>
