<svg width="28" height="28" viewBox="0 0 28 28" fill="none" xmlns="http://www.w3.org/2000/svg">
<path d="M14 16.0417C13.5217 16.0417 13.125 15.645 13.125 15.1667V9.04169C13.125 8.56335 13.5217 8.16669 14 8.16669C14.4783 8.16669 14.875 8.56335 14.875 9.04169V15.1667C14.875 15.645 14.4783 16.0417 14 16.0417Z" fill="#495057"/>
<path d="M14.0002 20.125C13.6852 20.125 13.3935 20.0084 13.1718 19.7867C13.0668 19.67 12.9852 19.5417 12.9152 19.4017C12.8568 19.2617 12.8335 19.11 12.8335 18.9584C12.8335 18.655 12.9618 18.3517 13.1718 18.13C13.6035 17.6984 14.3968 17.6984 14.8285 18.13C15.0385 18.3517 15.1668 18.655 15.1668 18.9584C15.1668 19.11 15.1318 19.2617 15.0735 19.4017C15.0152 19.5417 14.9335 19.67 14.8285 19.7867C14.6068 20.0084 14.3152 20.125 14.0002 20.125Z" fill="#495057"/>
<path d="M14.0001 26.5417C13.2184 26.5417 12.4251 26.3433 11.7251 25.935L4.79503 21.9333C3.39503 21.1167 2.52002 19.6117 2.52002 17.99V10.01C2.52002 8.38834 3.39503 6.88334 4.79503 6.06667L11.7251 2.06501C13.1251 1.24835 14.8634 1.24835 16.2751 2.06501L23.2051 6.06667C24.6051 6.88334 25.4801 8.38834 25.4801 10.01V17.99C25.4801 19.6117 24.6051 21.1167 23.2051 21.9333L16.2751 25.935C15.5751 26.3433 14.7817 26.5417 14.0001 26.5417ZM14.0001 3.20832C13.5217 3.20832 13.0317 3.33666 12.6001 3.58166L5.67003 7.58332C4.8067 8.08499 4.27002 9.00667 4.27002 10.01V17.99C4.27002 18.9817 4.8067 19.915 5.67003 20.4167L12.6001 24.4183C13.4634 24.92 14.5367 24.92 15.3884 24.4183L22.3184 20.4167C23.1817 19.915 23.7184 18.9933 23.7184 17.99V10.01C23.7184 9.01834 23.1817 8.08499 22.3184 7.58332L15.3884 3.58166C14.9684 3.33666 14.4784 3.20832 14.0001 3.20832Z" fill="#495057"/>
</svg>
